<svg xmlns="http://www.w3.org/2000/svg" xmlns:xlink="http://www.w3.org/1999/xlink" width="115" height="115" viewBox="0 0 115 115">
  <defs>
    <clipPath id="clip-path">
      <rect id="Rectangle_26" data-name="Rectangle 26" width="115" height="115" transform="translate(8434 -135)" fill="#fff"/>
    </clipPath>
  </defs>
  <g id="Group_65" data-name="Group 65" transform="translate(-8434 135)">
    <g id="Group_64" data-name="Group 64">
      <g id="Group_63" data-name="Group 63" clip-path="url(#clip-path)">
        <g id="Group_62" data-name="Group 62">
          <g id="Group_61" data-name="Group 61" clip-path="url(#clip-path)">
            <path id="Path_67" data-name="Path 67" d="M8491.5-35.072c-12.713,0-54.255-22.171-54.255-52.021,0-13.948,6.972-25.627,18.194-30.479,11.26-4.868,24.527-2.083,36.061,7.407,11.532-9.49,24.8-12.276,36.061-7.407,11.223,4.852,18.193,16.531,18.193,30.479,0,29.85-41.542,52.021-54.254,52.021m-24.609-76.84a20.718,20.718,0,0,0-8.276,1.684c-8.371,3.619-13.369,12.267-13.369,23.135,0,14.221,12.309,25.671,19.646,31.231,10.869,8.235,22.633,12.79,26.609,12.79s15.74-4.555,26.609-12.79c7.337-5.56,19.645-17.01,19.645-31.231,0-10.868-5-19.516-13.368-23.135-9.142-3.954-20.412-.848-30.146,8.3a4,4,0,0,1-5.48,0c-6.952-6.536-14.686-9.988-21.869-9.988" fill="#fff"/>
            <path id="Path_68" data-name="Path 68" d="M8456.538-83.23a4,4,0,0,1-4-4c0-9.973,6.473-17.891,15.057-18.418a4.005,4.005,0,0,1,4.237,3.748,4,4,0,0,1-3.747,4.237c-4.232.26-7.547,4.843-7.547,10.433a4,4,0,0,1-4,4" fill="#fff"/>
            <path id="Path_69" data-name="Path 69" d="M8491.5-35.072c-12.713,0-54.255-22.171-54.255-52.021,0-13.948,6.972-25.627,18.194-30.479,11.26-4.868,24.527-2.083,36.061,7.407,11.532-9.49,24.8-12.276,36.061-7.407,11.223,4.852,18.193,16.531,18.193,30.479,0,29.85-41.542,52.021-54.254,52.021m-24.609-76.84a20.718,20.718,0,0,0-8.276,1.684c-8.371,3.619-13.369,12.267-13.369,23.135,0,14.221,12.309,25.671,19.646,31.231,10.869,8.235,22.633,12.79,26.609,12.79s15.74-4.555,26.609-12.79c7.337-5.56,19.645-17.01,19.645-31.231,0-10.868-5-19.516-13.368-23.135-9.142-3.954-20.412-.848-30.146,8.3a4,4,0,0,1-5.48,0c-6.952-6.536-14.686-9.988-21.869-9.988" fill="#fff"/>
            <path id="Path_70" data-name="Path 70" d="M8456.538-83.23a4,4,0,0,1-4-4c0-9.973,6.473-17.891,15.057-18.418a4.005,4.005,0,0,1,4.237,3.748,4,4,0,0,1-3.747,4.237c-4.232.26-7.547,4.843-7.547,10.433a4,4,0,0,1-4,4" fill="#fff"/>
          </g>
        </g>
      </g>
    </g>
  </g>
</svg>
